<?xml version="1.0" encoding="utf-8"?>
<svg viewBox="0 0 500 500" xmlns="http://www.w3.org/2000/svg">
  <path d="M 224.312 193.721 L 312.879 105.155 L 404.731 197.007 L 316.164 285.573 L 224.312 193.721 Z M 314.947 107.266 C 340.208 132.528 340.85 172.843 316.381 197.313 C 291.911 221.782 251.596 221.14 226.334 195.879 C 201.073 170.618 200.431 130.303 224.901 105.833 C 249.371 81.363 289.686 82.005 314.947 107.266 Z M 403.063 107.097 C 428.324 132.359 429.057 172.583 404.699 196.941 C 380.341 221.299 340.116 220.567 314.855 195.305 C 289.593 170.044 288.861 129.819 313.219 105.461 C 337.577 81.103 377.801 81.836 403.063 107.097 Z" style="fill: rgb(255, 255, 255); paint-order: stroke; fill-rule: nonzero; stroke: rgb(0, 0, 0); stroke-width: 4.78064px;"/>
</svg>